<svg width="347" height="168" viewBox="0 0 347 168" fill="none" xmlns="http://www.w3.org/2000/svg">
<path d="M111.682 18.4034L110.142 18.6761C110.078 18.4792 109.975 18.2917 109.835 18.1136C109.699 17.9356 109.513 17.7898 109.278 17.6761C109.044 17.5625 108.75 17.5057 108.398 17.5057C107.917 17.5057 107.515 17.6136 107.193 17.8295C106.871 18.0417 106.71 18.3163 106.71 18.6534C106.71 18.9451 106.818 19.1799 107.034 19.358C107.25 19.536 107.598 19.6818 108.08 19.7955L109.466 20.1136C110.269 20.2992 110.867 20.5852 111.261 20.9716C111.655 21.358 111.852 21.8598 111.852 22.4773C111.852 23 111.701 23.4659 111.398 23.875C111.098 24.2803 110.68 24.5985 110.142 24.8295C109.608 25.0606 108.989 25.1761 108.284 25.1761C107.307 25.1761 106.509 24.9678 105.892 24.5511C105.275 24.1307 104.896 23.5341 104.756 22.7614L106.398 22.5114C106.5 22.9394 106.71 23.2633 107.028 23.483C107.347 23.6989 107.761 23.8068 108.273 23.8068C108.83 23.8068 109.275 23.6913 109.608 23.4602C109.941 23.2254 110.108 22.9394 110.108 22.6023C110.108 22.3295 110.006 22.1004 109.801 21.9148C109.6 21.7292 109.292 21.589 108.875 21.4943L107.398 21.1705C106.583 20.9848 105.981 20.6894 105.591 20.2841C105.205 19.8788 105.011 19.3655 105.011 18.7443C105.011 18.2292 105.155 17.7784 105.443 17.392C105.731 17.0057 106.129 16.7045 106.636 16.4886C107.144 16.2689 107.725 16.1591 108.381 16.1591C109.324 16.1591 110.066 16.3636 110.608 16.7727C111.15 17.178 111.508 17.7216 111.682 18.4034ZM117.482 25.1761C116.622 25.1761 115.881 24.9924 115.26 24.625C114.643 24.2538 114.165 23.733 113.828 23.0625C113.495 22.3883 113.328 21.5985 113.328 20.6932C113.328 19.7992 113.495 19.0114 113.828 18.3295C114.165 17.6477 114.635 17.1155 115.237 16.733C115.843 16.3504 116.552 16.1591 117.362 16.1591C117.855 16.1591 118.332 16.2405 118.794 16.4034C119.256 16.5663 119.671 16.822 120.038 17.1705C120.406 17.5189 120.696 17.9716 120.908 18.5284C121.12 19.0814 121.226 19.7538 121.226 20.5455V21.1477H114.288V19.875H119.561C119.561 19.428 119.47 19.0322 119.288 18.6875C119.107 18.339 118.851 18.0644 118.521 17.8636C118.196 17.6629 117.813 17.5625 117.374 17.5625C116.896 17.5625 116.48 17.6799 116.124 17.9148C115.771 18.1458 115.499 18.4489 115.305 18.8239C115.116 19.1951 115.021 19.5985 115.021 20.0341V21.0284C115.021 21.6117 115.124 22.108 115.328 22.517C115.536 22.9261 115.826 23.2386 116.197 23.4545C116.569 23.6667 117.002 23.7727 117.499 23.7727C117.821 23.7727 118.114 23.7273 118.379 23.6364C118.644 23.5417 118.874 23.4015 119.067 23.2159C119.26 23.0303 119.408 22.8011 119.51 22.5284L121.118 22.8182C120.989 23.2917 120.758 23.7064 120.425 24.0625C120.095 24.4148 119.68 24.6894 119.18 24.8864C118.684 25.0795 118.118 25.1761 117.482 25.1761ZM126.787 25.1761C125.942 25.1761 125.215 24.9848 124.605 24.6023C123.999 24.2159 123.533 23.6837 123.207 23.0057C122.882 22.3277 122.719 21.5511 122.719 20.6761C122.719 19.7898 122.885 19.0076 123.219 18.3295C123.552 17.6477 124.022 17.1155 124.628 16.733C125.234 16.3504 125.948 16.1591 126.77 16.1591C127.433 16.1591 128.024 16.2822 128.543 16.5284C129.062 16.7708 129.48 17.1117 129.798 17.5511C130.12 17.9905 130.312 18.5038 130.372 19.0909H128.719C128.628 18.6818 128.42 18.3295 128.094 18.0341C127.772 17.7386 127.34 17.5909 126.798 17.5909C126.325 17.5909 125.91 17.7159 125.554 17.9659C125.202 18.2121 124.927 18.5644 124.73 19.0227C124.533 19.4773 124.435 20.0152 124.435 20.6364C124.435 21.2727 124.531 21.822 124.724 22.2841C124.918 22.7462 125.19 23.1042 125.543 23.358C125.899 23.6117 126.317 23.7386 126.798 23.7386C127.12 23.7386 127.412 23.6799 127.673 23.5625C127.938 23.4413 128.16 23.2689 128.338 23.0455C128.52 22.822 128.647 22.553 128.719 22.2386H130.372C130.312 22.803 130.128 23.3068 129.821 23.75C129.514 24.1932 129.103 24.5417 128.588 24.7955C128.077 25.0492 127.476 25.1761 126.787 25.1761ZM136.263 16.2727V17.6364H131.496V16.2727H136.263ZM132.774 14.1818H134.473V22.4375C134.473 22.767 134.522 23.0152 134.621 23.1818C134.719 23.3447 134.846 23.4564 135.001 23.517C135.161 23.5739 135.333 23.6023 135.518 23.6023C135.655 23.6023 135.774 23.5928 135.876 23.5739C135.979 23.5549 136.058 23.5398 136.115 23.5284L136.422 24.9318C136.323 24.9697 136.183 25.0076 136.001 25.0455C135.82 25.0871 135.592 25.1098 135.32 25.1136C134.873 25.1212 134.456 25.0417 134.07 24.875C133.683 24.7083 133.371 24.4508 133.132 24.1023C132.893 23.7538 132.774 23.3163 132.774 22.7898V14.1818ZM138.142 25V16.2727H139.841V25H138.142ZM139 14.9261C138.705 14.9261 138.451 14.8277 138.239 14.6307C138.03 14.4299 137.926 14.1913 137.926 13.9148C137.926 13.6345 138.03 13.3958 138.239 13.1989C138.451 12.9981 138.705 12.8977 139 12.8977C139.295 12.8977 139.547 12.9981 139.756 13.1989C139.968 13.3958 140.074 13.6345 140.074 13.9148C140.074 14.1913 139.968 14.4299 139.756 14.6307C139.547 14.8277 139.295 14.9261 139 14.9261ZM145.803 25.1761C144.984 25.1761 144.27 24.9886 143.661 24.6136C143.051 24.2386 142.577 23.714 142.24 23.0398C141.903 22.3655 141.734 21.5777 141.734 20.6761C141.734 19.7708 141.903 18.9792 142.24 18.3011C142.577 17.6231 143.051 17.0966 143.661 16.7216C144.27 16.3466 144.984 16.1591 145.803 16.1591C146.621 16.1591 147.335 16.3466 147.945 16.7216C148.554 17.0966 149.028 17.6231 149.365 18.3011C149.702 18.9792 149.871 19.7708 149.871 20.6761C149.871 21.5777 149.702 22.3655 149.365 23.0398C149.028 23.714 148.554 24.2386 147.945 24.6136C147.335 24.9886 146.621 25.1761 145.803 25.1761ZM145.808 23.75C146.339 23.75 146.778 23.6098 147.126 23.3295C147.475 23.0492 147.732 22.6761 147.899 22.2102C148.07 21.7443 148.155 21.2311 148.155 20.6705C148.155 20.1136 148.07 19.6023 147.899 19.1364C147.732 18.6667 147.475 18.2898 147.126 18.0057C146.778 17.7216 146.339 17.5795 145.808 17.5795C145.274 17.5795 144.831 17.7216 144.479 18.0057C144.13 18.2898 143.871 18.6667 143.7 19.1364C143.534 19.6023 143.45 20.1136 143.45 20.6705C143.45 21.2311 143.534 21.7443 143.7 22.2102C143.871 22.6761 144.13 23.0492 144.479 23.3295C144.831 23.6098 145.274 23.75 145.808 23.75ZM153.466 19.8182V25H151.767V16.2727H153.398V17.6932H153.506C153.706 17.2311 154.021 16.8598 154.449 16.5795C154.881 16.2992 155.424 16.1591 156.08 16.1591C156.674 16.1591 157.195 16.2841 157.642 16.5341C158.089 16.7803 158.436 17.1477 158.682 17.6364C158.928 18.125 159.051 18.7292 159.051 19.4489V25H157.352V19.6534C157.352 19.0208 157.188 18.5265 156.858 18.1705C156.528 17.8106 156.076 17.6307 155.5 17.6307C155.106 17.6307 154.756 17.7159 154.449 17.8864C154.146 18.0568 153.905 18.3068 153.727 18.6364C153.553 18.9621 153.466 19.3561 153.466 19.8182Z" fill="white"/>
<path d="M75 0V-1H74V0H75ZM190 0H191V-1H190V0ZM190 39V40H191V39H190ZM75 39H74V40H75V39ZM75 1H190V-1H75V1ZM189 0V39H191V0H189ZM190 38H75V40H190V38ZM76 39V0H74V39H76Z" fill="white"/>
<path d="M0 64H68V103H0V64Z" fill="#06B6D4"/>
<path d="M32.6818 89.1932C32.1288 89.1932 31.6288 89.0909 31.1818 88.8864C30.7348 88.678 30.3807 88.3769 30.1193 87.983C29.8617 87.589 29.733 87.1061 29.733 86.5341C29.733 86.0417 29.8277 85.6364 30.017 85.3182C30.2064 85 30.4621 84.7481 30.7841 84.5625C31.1061 84.3769 31.4659 84.2367 31.8636 84.142C32.2614 84.0473 32.6667 83.9754 33.0795 83.9261C33.6023 83.8655 34.0265 83.8163 34.3523 83.7784C34.678 83.7367 34.9148 83.6705 35.0625 83.5795C35.2102 83.4886 35.2841 83.3409 35.2841 83.1364V83.0966C35.2841 82.6004 35.1439 82.2159 34.8636 81.9432C34.5871 81.6705 34.1742 81.5341 33.625 81.5341C33.053 81.5341 32.6023 81.661 32.2727 81.9148C31.947 82.1648 31.7216 82.4432 31.5966 82.75L30 82.3864C30.1894 81.8561 30.4659 81.428 30.8295 81.1023C31.197 80.7727 31.6193 80.5341 32.0966 80.3864C32.5739 80.2348 33.0758 80.1591 33.6023 80.1591C33.9508 80.1591 34.3201 80.2008 34.7102 80.2841C35.1042 80.3636 35.4716 80.5114 35.8125 80.7273C36.1572 80.9432 36.4394 81.2519 36.6591 81.6534C36.8788 82.0511 36.9886 82.5682 36.9886 83.2045V89H35.3295V87.8068H35.2614C35.1515 88.0265 34.9867 88.2424 34.767 88.4545C34.5473 88.6667 34.2652 88.8428 33.9205 88.983C33.5758 89.1231 33.1629 89.1932 32.6818 89.1932ZM33.0511 87.8295C33.5208 87.8295 33.9223 87.7367 34.2557 87.5511C34.5928 87.3655 34.8485 87.1231 35.0227 86.8239C35.2008 86.5208 35.2898 86.197 35.2898 85.8523V84.7273C35.2292 84.7879 35.1117 84.8447 34.9375 84.8977C34.767 84.947 34.572 84.9905 34.3523 85.0284C34.1326 85.0625 33.9186 85.0947 33.7102 85.125C33.5019 85.1515 33.3277 85.1742 33.1875 85.1932C32.858 85.2348 32.5568 85.3049 32.2841 85.4034C32.0152 85.5019 31.7992 85.6439 31.6364 85.8295C31.4773 86.0114 31.3977 86.2538 31.3977 86.5568C31.3977 86.9773 31.553 87.2955 31.8636 87.5114C32.1742 87.7235 32.5701 87.8295 33.0511 87.8295Z" fill="white"/>
<path d="M0 64V63H-1V64H0ZM68 64H69V63H68V64ZM68 103V104H69V103H68ZM0 103H-1V104H0V103ZM0 65H68V63H0V65ZM67 64V103H69V64H67ZM68 102H0V104H68V102ZM1 103V64H-1V103H1Z" fill="white"/>
<path d="M223.409 89.1705C222.705 89.1705 222.076 88.9905 221.523 88.6307C220.973 88.267 220.542 87.75 220.227 87.0795C219.917 86.4053 219.761 85.5966 219.761 84.6534C219.761 83.7102 219.919 82.9034 220.233 82.233C220.551 81.5625 220.987 81.0492 221.54 80.6932C222.093 80.3371 222.72 80.1591 223.42 80.1591C223.962 80.1591 224.398 80.25 224.727 80.4318C225.061 80.6098 225.318 80.8182 225.5 81.0568C225.686 81.2955 225.83 81.5057 225.932 81.6875H226.034V77.3636H227.733V89H226.074V87.642H225.932C225.83 87.8277 225.682 88.0398 225.489 88.2784C225.299 88.517 225.038 88.7254 224.705 88.9034C224.371 89.0814 223.939 89.1705 223.409 89.1705ZM223.784 87.7216C224.273 87.7216 224.686 87.5928 225.023 87.3352C225.364 87.0739 225.621 86.7121 225.795 86.25C225.973 85.7879 226.062 85.25 226.062 84.6364C226.062 84.0303 225.975 83.5 225.801 83.0455C225.627 82.5909 225.371 82.2367 225.034 81.983C224.697 81.7292 224.28 81.6023 223.784 81.6023C223.273 81.6023 222.847 81.7348 222.506 82C222.165 82.2652 221.907 82.6269 221.733 83.0852C221.563 83.5436 221.477 84.0606 221.477 84.6364C221.477 85.2197 221.564 85.7443 221.739 86.2102C221.913 86.6761 222.17 87.0455 222.511 87.3182C222.856 87.5871 223.28 87.7216 223.784 87.7216ZM230.158 89V80.2727H231.857V89H230.158ZM231.016 78.9261C230.72 78.9261 230.466 78.8277 230.254 78.6307C230.046 78.4299 229.942 78.1913 229.942 77.9148C229.942 77.6345 230.046 77.3958 230.254 77.1989C230.466 76.9981 230.72 76.8977 231.016 76.8977C231.311 76.8977 231.563 76.9981 231.771 77.1989C231.983 77.3958 232.089 77.6345 232.089 77.9148C232.089 78.1913 231.983 78.4299 231.771 78.6307C231.563 78.8277 231.311 78.9261 231.016 78.9261ZM241.608 80.2727L238.443 89H236.625L233.455 80.2727H235.278L237.489 86.9886H237.58L239.784 80.2727H241.608Z" fill="white"/>
<path d="M190 64V63H189V64H190ZM272 64H273V63H272V64ZM272 103V104H273V103H272ZM190 103H189V104H190V103ZM190 65H272V63H190V65ZM271 64V103H273V64H271ZM272 102H190V104H272V102ZM191 103V64H189V103H191Z" fill="white"/>
<path d="M136.682 147.403L135.142 147.676C135.078 147.479 134.975 147.292 134.835 147.114C134.699 146.936 134.513 146.79 134.278 146.676C134.044 146.562 133.75 146.506 133.398 146.506C132.917 146.506 132.515 146.614 132.193 146.83C131.871 147.042 131.71 147.316 131.71 147.653C131.71 147.945 131.818 148.18 132.034 148.358C132.25 148.536 132.598 148.682 133.08 148.795L134.466 149.114C135.269 149.299 135.867 149.585 136.261 149.972C136.655 150.358 136.852 150.86 136.852 151.477C136.852 152 136.701 152.466 136.398 152.875C136.098 153.28 135.68 153.598 135.142 153.83C134.608 154.061 133.989 154.176 133.284 154.176C132.307 154.176 131.509 153.968 130.892 153.551C130.275 153.131 129.896 152.534 129.756 151.761L131.398 151.511C131.5 151.939 131.71 152.263 132.028 152.483C132.347 152.699 132.761 152.807 133.273 152.807C133.83 152.807 134.275 152.691 134.608 152.46C134.941 152.225 135.108 151.939 135.108 151.602C135.108 151.33 135.006 151.1 134.801 150.915C134.6 150.729 134.292 150.589 133.875 150.494L132.398 150.17C131.583 149.985 130.981 149.689 130.591 149.284C130.205 148.879 130.011 148.366 130.011 147.744C130.011 147.229 130.155 146.778 130.443 146.392C130.731 146.006 131.129 145.705 131.636 145.489C132.144 145.269 132.725 145.159 133.381 145.159C134.324 145.159 135.066 145.364 135.608 145.773C136.15 146.178 136.508 146.722 136.682 147.403ZM138.72 157.273V145.273H140.379V146.688H140.521C140.62 146.506 140.762 146.295 140.947 146.057C141.133 145.818 141.391 145.61 141.72 145.432C142.05 145.25 142.485 145.159 143.027 145.159C143.732 145.159 144.36 145.337 144.913 145.693C145.466 146.049 145.9 146.562 146.214 147.233C146.533 147.903 146.692 148.71 146.692 149.653C146.692 150.597 146.535 151.405 146.22 152.08C145.906 152.75 145.474 153.267 144.925 153.631C144.375 153.991 143.749 154.17 143.044 154.17C142.514 154.17 142.08 154.081 141.743 153.903C141.41 153.725 141.148 153.517 140.959 153.278C140.769 153.04 140.624 152.828 140.521 152.642H140.419V157.273H138.72ZM140.385 149.636C140.385 150.25 140.474 150.788 140.652 151.25C140.83 151.712 141.088 152.074 141.425 152.335C141.762 152.593 142.175 152.722 142.663 152.722C143.171 152.722 143.595 152.587 143.936 152.318C144.277 152.045 144.535 151.676 144.709 151.21C144.887 150.744 144.976 150.22 144.976 149.636C144.976 149.061 144.889 148.544 144.714 148.085C144.544 147.627 144.286 147.265 143.942 147C143.601 146.735 143.175 146.602 142.663 146.602C142.171 146.602 141.754 146.729 141.413 146.983C141.076 147.237 140.821 147.591 140.646 148.045C140.472 148.5 140.385 149.03 140.385 149.636ZM151.135 154.193C150.582 154.193 150.082 154.091 149.635 153.886C149.188 153.678 148.834 153.377 148.572 152.983C148.315 152.589 148.186 152.106 148.186 151.534C148.186 151.042 148.281 150.636 148.47 150.318C148.66 150 148.915 149.748 149.237 149.562C149.559 149.377 149.919 149.237 150.317 149.142C150.714 149.047 151.12 148.975 151.533 148.926C152.055 148.866 152.48 148.816 152.805 148.778C153.131 148.737 153.368 148.67 153.516 148.58C153.663 148.489 153.737 148.341 153.737 148.136V148.097C153.737 147.6 153.597 147.216 153.317 146.943C153.04 146.67 152.627 146.534 152.078 146.534C151.506 146.534 151.055 146.661 150.726 146.915C150.4 147.165 150.175 147.443 150.05 147.75L148.453 147.386C148.643 146.856 148.919 146.428 149.283 146.102C149.65 145.773 150.072 145.534 150.55 145.386C151.027 145.235 151.529 145.159 152.055 145.159C152.404 145.159 152.773 145.201 153.163 145.284C153.557 145.364 153.925 145.511 154.266 145.727C154.61 145.943 154.893 146.252 155.112 146.653C155.332 147.051 155.442 147.568 155.442 148.205V154H153.783V152.807H153.714C153.605 153.027 153.44 153.242 153.22 153.455C153 153.667 152.718 153.843 152.374 153.983C152.029 154.123 151.616 154.193 151.135 154.193ZM151.504 152.83C151.974 152.83 152.375 152.737 152.709 152.551C153.046 152.366 153.302 152.123 153.476 151.824C153.654 151.521 153.743 151.197 153.743 150.852V149.727C153.682 149.788 153.565 149.845 153.391 149.898C153.22 149.947 153.025 149.991 152.805 150.028C152.586 150.062 152.372 150.095 152.163 150.125C151.955 150.152 151.781 150.174 151.641 150.193C151.311 150.235 151.01 150.305 150.737 150.403C150.468 150.502 150.252 150.644 150.089 150.83C149.93 151.011 149.851 151.254 149.851 151.557C149.851 151.977 150.006 152.295 150.317 152.511C150.627 152.723 151.023 152.83 151.504 152.83ZM159.403 148.818V154H157.705V145.273H159.335V146.693H159.443C159.644 146.231 159.958 145.86 160.386 145.58C160.818 145.299 161.362 145.159 162.017 145.159C162.612 145.159 163.133 145.284 163.58 145.534C164.027 145.78 164.373 146.148 164.619 146.636C164.866 147.125 164.989 147.729 164.989 148.449V154H163.29V148.653C163.29 148.021 163.125 147.527 162.795 147.17C162.466 146.811 162.013 146.631 161.438 146.631C161.044 146.631 160.693 146.716 160.386 146.886C160.083 147.057 159.843 147.307 159.665 147.636C159.491 147.962 159.403 148.356 159.403 148.818Z" fill="white"/>
<path d="M100 129V128H99V129H100ZM196 129H197V128H196V129ZM196 168V169H197V168H196ZM100 168H99V169H100V168ZM100 130H196V128H100V130ZM195 129V168H197V129H195ZM196 167H100V169H196V167ZM101 168V129H99V168H101Z" fill="white"/>
<path d="M311.682 154.193C311.129 154.193 310.629 154.091 310.182 153.886C309.735 153.678 309.381 153.377 309.119 152.983C308.862 152.589 308.733 152.106 308.733 151.534C308.733 151.042 308.828 150.636 309.017 150.318C309.206 150 309.462 149.748 309.784 149.562C310.106 149.377 310.466 149.237 310.864 149.142C311.261 149.047 311.667 148.975 312.08 148.926C312.602 148.866 313.027 148.816 313.352 148.778C313.678 148.737 313.915 148.67 314.062 148.58C314.21 148.489 314.284 148.341 314.284 148.136V148.097C314.284 147.6 314.144 147.216 313.864 146.943C313.587 146.67 313.174 146.534 312.625 146.534C312.053 146.534 311.602 146.661 311.273 146.915C310.947 147.165 310.722 147.443 310.597 147.75L309 147.386C309.189 146.856 309.466 146.428 309.83 146.102C310.197 145.773 310.619 145.534 311.097 145.386C311.574 145.235 312.076 145.159 312.602 145.159C312.951 145.159 313.32 145.201 313.71 145.284C314.104 145.364 314.472 145.511 314.812 145.727C315.157 145.943 315.439 146.252 315.659 146.653C315.879 147.051 315.989 147.568 315.989 148.205V154H314.33V152.807H314.261C314.152 153.027 313.987 153.242 313.767 153.455C313.547 153.667 313.265 153.843 312.92 153.983C312.576 154.123 312.163 154.193 311.682 154.193ZM312.051 152.83C312.521 152.83 312.922 152.737 313.256 152.551C313.593 152.366 313.848 152.123 314.023 151.824C314.201 151.521 314.29 151.197 314.29 150.852V149.727C314.229 149.788 314.112 149.845 313.938 149.898C313.767 149.947 313.572 149.991 313.352 150.028C313.133 150.062 312.919 150.095 312.71 150.125C312.502 150.152 312.328 150.174 312.188 150.193C311.858 150.235 311.557 150.305 311.284 150.403C311.015 150.502 310.799 150.644 310.636 150.83C310.477 151.011 310.398 151.254 310.398 151.557C310.398 151.977 310.553 152.295 310.864 152.511C311.174 152.723 311.57 152.83 312.051 152.83Z" fill="white"/>
<path d="M279 129V128H278V129H279ZM347 129H348V128H347V129ZM347 168V169H348V168H347ZM279 168H278V169H279V168ZM279 130H347V128H279V130ZM346 129V168H348V129H346ZM347 167H279V169H347V167ZM280 168V129H278V168H280Z" fill="white"/>
<line x1="189" y1="16" x2="230.012" y2="16" stroke="white"/>
<path d="M229.653 62.3536C229.848 62.5488 230.164 62.5488 230.36 62.3536L233.542 59.1716C233.737 58.9763 233.737 58.6597 233.542 58.4645C233.346 58.2692 233.03 58.2692 232.835 58.4645L230.006 61.2929L227.178 58.4645C226.982 58.2692 226.666 58.2692 226.471 58.4645C226.275 58.6597 226.275 58.9763 226.471 59.1716L229.653 62.3536ZM229.506 16V62H230.506V16H229.506Z" fill="white"/>
<line y1="-0.5" x2="41.0122" y2="-0.5" transform="matrix(-1 0 0 1 75.0122 16.5)" stroke="white"/>
<path d="M34.3597 62.3536C34.1644 62.5488 33.8478 62.5488 33.6526 62.3536L30.4706 59.1716C30.2753 58.9763 30.2753 58.6597 30.4706 58.4645C30.6658 58.2692 30.9824 58.2692 31.1777 58.4645L34.0061 61.2929L36.8345 58.4645C37.0298 58.2692 37.3464 58.2692 37.5416 58.4645C37.7369 58.6597 37.7369 58.9763 37.5416 59.1716L34.3597 62.3536ZM34.5061 16V62H33.5061V16H34.5061Z" fill="white"/>
<line y1="-0.5" x2="41.0122" y2="-0.5" transform="matrix(-1 0 0 1 189.012 83.5)" stroke="white"/>
<path d="M148.36 129.354C148.164 129.549 147.848 129.549 147.653 129.354L144.471 126.172C144.275 125.976 144.275 125.66 144.471 125.464C144.666 125.269 144.982 125.269 145.178 125.464L148.006 128.293L150.835 125.464C151.03 125.269 151.346 125.269 151.542 125.464C151.737 125.66 151.737 125.976 151.542 126.172L148.36 129.354ZM148.506 83V129H147.506V83H148.506Z" fill="white"/>
<line x1="272" y1="83" x2="313.012" y2="83" stroke="white"/>
<path d="M312.653 129.354C312.848 129.549 313.164 129.549 313.36 129.354L316.542 126.172C316.737 125.976 316.737 125.66 316.542 125.464C316.346 125.269 316.03 125.269 315.835 125.464L313.006 128.293L310.178 125.464C309.982 125.269 309.666 125.269 309.471 125.464C309.275 125.66 309.275 125.976 309.471 126.172L312.653 129.354ZM312.506 83V129H313.506V83H312.506Z" fill="white"/>
</svg>
